<?xml version="1.0" encoding="UTF-8" standalone="no"?>
<svg
   viewBox="0 0 334.06159 95.149879"
   version="1.1"
   id="svg30"
   width="334.06158"
   height="95.149879"
   xmlns="http://www.w3.org/2000/svg"
   xmlns:svg="http://www.w3.org/2000/svg">
  <defs
     id="defs34" />
  <style
     type="text/css"
     id="style2">
	.cls-1{fill:#f9b211;}
    .cls-2{fill:#7f1710;}
    .cls-3{fill:#293d90;}
    .cls-4{fill:#3e7830;}
    .cls-5{fill:#747474;}
    .cls-6{
        fill: #fff;
        stroke: #a5a5a5;
        stroke-width: 4;
        stroke-opacity:1;
    }
</style>
  <rect
     class="cls-1"
     width="21.370001"
     height="21.370001"
     x="0"
     y="0" />
  <rect
     class="cls-2"
     y="24.589996"
     width="21.370001"
     height="21.370001"
     x="0" />
  <rect
     class="cls-3"
     y="49.18988"
     width="21.370001"
     height="21.370001"
     x="0" />
  <rect
     class="cls-4"
     x="0"
     y="73.779877"
     width="21.370001"
     height="21.370001" />
  <rect
     class="cls-5"
     x="26.07"
     width="21.370001"
     height="21.370001"
     y="0" />
  <rect
     class="cls-5"
     x="26.07"
     y="24.589996"
     width="21.370001"
     height="21.370001" />
  <rect
     class="cls-5"
     x="26.07"
     y="49.18988"
     width="21.370001"
     height="21.370001" />
  <rect
     class="cls-5"
     x="26.07"
     y="73.779877"
     width="21.370001"
     height="21.370001" />
  <path
     class="cls-6"
     d="m 71.78,11.519974 q 14.64,0 24.52,10 9.88,10 9.88,30.56 0,20.55 -9.82,31.089902 -9.82,10.54 -26.55,10.54 -16.74,0 -26.25,-10.48 -9.51,-10.479902 -9.51,-30.499902 a 51.26,51.26 0 0 1 3.33,-19.24 31.63,31.63 0 0 1 8.74,-12.8 38.79,38.79 0 0 1 25.66,-9.17 z m -22.29,40.62 q 0,29.549902 21.24,29.549902 11.36,0 15.93,-9.049902 4.2,-8 4.2,-19.54 a 48.13,48.13 0 0 0 -3.74,-19.06 16.75,16.75 0 0 0 -6.36,-7.51 q -4.26,-2.74 -11.05,-2.74 a 17.08,17.08 0 0 0 -11.59,4.29 22.18,22.18 0 0 0 -6.73,10.37 46.93,46.93 0 0 0 -1.9,13.69 z" />
  <path
     class="cls-6"
     d="m 217.33,22.599974 -4.08,0.36 q -3.21,0.24 -4.08,4.29 L 193.62,92.169876 H 176.7 l -13,-52.999902 h -0.37 l -12.6,52.999902 h -17.38 l -17,-68.739902 -7,-0.36 v -10.13 h 30.63 v 9.65 l -4.16,0.35 q -3.83,0.36 -3.83,3.1 a 5.28,5.28 0 0 0 0.12,1.07 l 10.74,46 h 0.49 l 12.84,-53.85 h 15.94 l 13.34,54.09 h 0.25 l 10.5,-49.8 -6.67,-0.48 v -10.13 h 27.79 v 9.65 z"/>
  <path
     class="cls-6"
     d="M 229.56,78.229888 V 23.429974 l -7,-0.36 v -10.13 h 29.89 v 9.65 l -4.08,0.36 q -3.58,0.36 -3.58,3.81 v 54.919902 l 7,0.36 v 10.13 H 221.9 v -9.65 l 4.08,-0.36 a 5,5 0 0 0 2.72,-1 3.86,3.86 0 0 0 0.86,-2.929988 z"/>
  <path
     class="cls-6"
     d="m 260.06,92.169876 v -9.65 l 4.08,-0.36 q 3.58,-0.36 3.58,-3.34 V 23.429974 l -7,-0.36 v -10.13 h 33.8 q 18.16,0 28.34,9.29 10.18,9.29 10.19,27.52 a 57.14,57.14 0 0 1 -3.09,19.72 32.23,32.23 0 0 1 -8.4,13.159902 q -10.62,9.53 -26.43,9.53 h -35.07 z m 22.72,-67.669902 v 56.239902 h 12.6 q 10.62,0 16.55,-7.389902 5.93,-7.39 5.93,-21.41 0,-27.4 -24.08,-27.4 h -11 z"/>
</svg>
